<?xml version="1.0" encoding="utf-8"?>
<!-- Generator: Adobe Illustrator 16.0.0, SVG Export Plug-In . SVG Version: 6.00 Build 0)  -->
<!DOCTYPE svg PUBLIC "-//W3C//DTD SVG 1.1//EN" "http://www.w3.org/Graphics/SVG/1.1/DTD/svg11.dtd">
<svg version="1.1" id="Layer_1" xmlns="http://www.w3.org/2000/svg" xmlns:xlink="http://www.w3.org/1999/xlink" x="0px" y="0px"
	 width="200px" height="13px" viewBox="0 0 200 13" enable-background="new 0 0 200 13" xml:space="preserve">
<text transform="matrix(1 0 0 1 518.6641 251.4141)"><tspan x="0" y="0" fill="#E6E6E5" font-family="'ProximaNova-Light'" font-size="26">RI</tspan><tspan x="21.241" y="0" fill="#E6E6E5" font-family="'ProximaNova-Light'" font-size="26">C</tspan><tspan x="38.661" y="0" fill="#E6E6E5" font-family="'ProximaNova-Light'" font-size="26">ARDO</tspan></text>
<text transform="matrix(1 0 0 1 634.1562 251.4141)"><tspan x="0" y="0" fill="#FFFFFF" font-family="'ProximaNova-Semibold'" font-size="26">N</tspan><tspan x="18.72" y="0" fill="#FFFFFF" font-family="'ProximaNova-Semibold'" font-size="26">A</tspan><tspan x="35.983" y="0" fill="#FFFFFF" font-family="'ProximaNova-Semibold'" font-size="26">SCIMEN</tspan><tspan x="131.324" y="0" fill="#FFFFFF" font-family="'ProximaNova-Semibold'" font-size="26">T</tspan><tspan x="145.702" y="0" fill="#FFFFFF" font-family="'ProximaNova-Semibold'" font-size="26">O</tspan></text>
<g>
	<g>
		<path fill="#E6E6E5" d="M176.261,242.966l-3.5-5.165h-2.751v5.165h-1.066v-12.483h4.66c2.152,0,3.799,1.366,3.799,3.648
			c0,2.266-1.591,3.52-3.462,3.594l3.611,5.241H176.261z M176.279,234.131c0-1.571-1.104-2.676-2.77-2.676h-3.5v5.371h3.5
			C175.176,236.826,176.279,235.703,176.279,234.131z"/>
		<path fill="#E6E6E5" d="M180.06,242.966v-12.483h1.067v12.483H180.06z"/>
		<path fill="#E6E6E5" d="M183.765,236.732c0-3.836,2.788-6.457,6.325-6.457c1.984,0,3.5,0.881,4.548,2.209l-0.898,0.58
			c-0.786-1.086-2.152-1.814-3.649-1.814c-2.92,0-5.202,2.227-5.202,5.482c0,3.219,2.282,5.483,5.202,5.483
			c1.497,0,2.863-0.73,3.649-1.815l0.917,0.562c-1.122,1.366-2.582,2.229-4.566,2.229
			C186.553,243.19,183.765,240.57,183.765,236.732z"/>
		<path fill="#E6E6E5" d="M205.811,242.966l-1.234-3.069h-6.607l-1.235,3.069h-1.235l5.109-12.483h1.328l5.109,12.483H205.811z
			 M201.281,231.623l-2.957,7.299h5.896L201.281,231.623z"/>
		<path fill="#E6E6E5" d="M216.197,242.966l-3.5-5.165h-2.752v5.165h-1.066v-12.483h4.66c2.152,0,3.799,1.366,3.799,3.648
			c0,2.266-1.591,3.52-3.462,3.594l3.612,5.241H216.197z M216.216,234.131c0-1.571-1.104-2.676-2.771-2.676h-3.5v5.371h3.5
			C215.111,236.826,216.216,235.703,216.216,234.131z"/>
		<path fill="#E6E6E5" d="M219.995,242.966v-12.483h3.986c3.874,0,6.308,2.825,6.308,6.25c0,3.463-2.434,6.233-6.308,6.233H219.995z
			 M229.165,236.732c0-2.919-1.871-5.277-5.184-5.277h-2.92v10.537h2.92C227.275,241.992,229.165,239.652,229.165,236.732z"/>
		<path fill="#E6E6E5" d="M232.478,236.732c0-3.648,2.396-6.457,6.063-6.457c3.65,0,6.064,2.809,6.064,6.457
			c0,3.65-2.414,6.458-6.064,6.458C234.873,243.19,232.478,240.383,232.478,236.732z M243.482,236.732
			c0-3.162-1.946-5.482-4.941-5.482c-3.014,0-4.94,2.32-4.94,5.482c0,3.145,1.927,5.483,4.94,5.483
			C241.536,242.216,243.482,239.877,243.482,236.732z"/>
	</g>
	<g>
		<path fill="#FFFFFF" d="M260.551,242.966l-6.513-8.929v8.929h-2.19v-12.483h2.246l6.382,8.646v-8.646h2.19v12.483H260.551z"/>
		<path fill="#FFFFFF" d="M274.08,242.966l-0.916-2.415h-5.727l-0.918,2.415h-2.489l4.903-12.483h2.732l4.904,12.483H274.08z
			 M270.301,232.672l-2.246,5.951h4.491L270.301,232.672z"/>
		<path fill="#FFFFFF" d="M276.943,241.205l1.235-1.702c0.842,0.917,2.208,1.74,3.948,1.74c1.797,0,2.49-0.88,2.49-1.722
			c0-2.62-7.263-0.992-7.263-5.577c0-2.077,1.797-3.669,4.548-3.669c1.928,0,3.52,0.637,4.66,1.76l-1.235,1.629
			c-0.991-0.992-2.32-1.441-3.63-1.441c-1.272,0-2.097,0.637-2.097,1.553c0,2.34,7.262,0.898,7.262,5.541
			c0,2.077-1.479,3.874-4.829,3.874C279.732,243.19,278.066,242.367,276.943,241.205z"/>
		<path fill="#FFFFFF" d="M288.321,236.732c0-3.855,2.863-6.457,6.55-6.457c2.508,0,4.08,1.292,4.997,2.789l-1.853,0.973
			c-0.6-1.047-1.816-1.814-3.145-1.814c-2.47,0-4.305,1.871-4.305,4.51c0,2.602,1.835,4.511,4.305,4.511
			c1.328,0,2.545-0.786,3.145-1.815l1.871,0.936c-0.954,1.497-2.508,2.827-5.016,2.827
			C291.185,243.19,288.321,240.57,288.321,236.732z"/>
		<path fill="#FFFFFF" d="M301.627,242.966v-12.483h2.189v12.483H301.627z"/>
		<path fill="#FFFFFF" d="M317.254,242.966v-9.64l-3.818,9.64H312.5l-3.836-9.64v9.64h-2.19v-12.483h3.089l3.405,8.57l3.388-8.57
			h3.088v12.483H317.254z"/>
		<path fill="#FFFFFF" d="M322.101,242.966v-12.483h8.553v1.927h-6.364v3.22h6.233v1.928h-6.233v3.481h6.364v1.928H322.101z"/>
		<path fill="#FFFFFF" d="M341.601,242.966l-6.513-8.929v8.929h-2.189v-12.483h2.245l6.383,8.646v-8.646h2.19v12.483H341.601z"/>
		<path fill="#FFFFFF" d="M349.349,242.966v-10.557h-3.78v-1.927h9.75v1.927h-3.78v10.557H349.349z"/>
		<path fill="#FFFFFF" d="M356.179,236.732c0-3.725,2.639-6.457,6.382-6.457c3.724,0,6.383,2.732,6.383,6.457
			s-2.659,6.458-6.383,6.458C358.817,243.19,356.179,240.457,356.179,236.732z M366.696,236.732c0-2.582-1.628-4.51-4.136-4.51
			c-2.526,0-4.137,1.928-4.137,4.51c0,2.564,1.61,4.511,4.137,4.511C365.068,241.243,366.696,239.297,366.696,236.732z"/>
	</g>
</g>
<g>
	<g>
		<path fill="#E6E6E5" d="M7.317,12.732l-3.5-5.165h-2.75v5.165H0V0.249h4.66c2.152,0,3.799,1.366,3.799,3.649
			c0,2.265-1.591,3.519-3.462,3.593l3.611,5.241H7.317z M7.336,3.898c0-1.572-1.104-2.677-2.77-2.677h-3.5v5.371h3.5
			C6.232,6.593,7.336,5.471,7.336,3.898z"/>
		<path fill="#E6E6E5" d="M11.116,12.732V0.249h1.067v12.483H11.116z"/>
		<path fill="#E6E6E5" d="M14.821,6.5c0-3.837,2.788-6.457,6.325-6.457c1.984,0,3.5,0.88,4.548,2.208l-0.898,0.58
			c-0.786-1.085-2.152-1.814-3.649-1.814c-2.919,0-5.202,2.227-5.202,5.483c0,3.218,2.283,5.482,5.202,5.482
			c1.497,0,2.863-0.73,3.649-1.815l0.917,0.562c-1.123,1.366-2.583,2.229-4.567,2.229C17.609,12.957,14.821,10.337,14.821,6.5z"/>
		<path fill="#E6E6E5" d="M36.867,12.732l-1.235-3.069h-6.607l-1.235,3.069h-1.235l5.109-12.483h1.329l5.109,12.483H36.867z
			 M32.338,1.39l-2.957,7.299h5.896L32.338,1.39z"/>
		<path fill="#E6E6E5" d="M47.253,12.732l-3.5-5.165h-2.751v5.165h-1.066V0.249h4.66c2.152,0,3.799,1.366,3.799,3.649
			c0,2.265-1.591,3.519-3.462,3.593l3.612,5.241H47.253z M47.272,3.898c0-1.572-1.104-2.677-2.771-2.677h-3.5v5.371h3.5
			C46.168,6.593,47.272,5.471,47.272,3.898z"/>
		<path fill="#E6E6E5" d="M51.052,12.732V0.249h3.986c3.874,0,6.307,2.825,6.307,6.251c0,3.462-2.434,6.232-6.307,6.232H51.052z
			 M60.222,6.5c0-2.92-1.871-5.278-5.184-5.278h-2.92v10.537h2.92C58.332,11.759,60.222,9.419,60.222,6.5z"/>
		<path fill="#E6E6E5" d="M63.534,6.5c0-3.649,2.395-6.457,6.064-6.457c3.649,0,6.063,2.808,6.063,6.457s-2.414,6.457-6.063,6.457
			C65.929,12.957,63.534,10.149,63.534,6.5z M74.539,6.5c0-3.163-1.946-5.483-4.941-5.483c-3.014,0-4.941,2.32-4.941,5.483
			c0,3.144,1.927,5.482,4.941,5.482C72.593,11.982,74.539,9.644,74.539,6.5z"/>
	</g>
	<g>
		<path fill="#FFFFFF" d="M91.607,12.732l-6.512-8.928v8.928h-2.191V0.249h2.246l6.382,8.646V0.249h2.19v12.483H91.607z"/>
		<path fill="#FFFFFF" d="M105.137,12.732l-0.916-2.415h-5.727l-0.917,2.415h-2.489L99.99,0.249h2.732l4.904,12.483H105.137z
			 M101.357,2.438L99.111,8.39h4.491L101.357,2.438z"/>
		<path fill="#FFFFFF" d="M108,10.972l1.235-1.702c0.842,0.917,2.208,1.74,3.948,1.74c1.797,0,2.49-0.88,2.49-1.722
			c0-2.62-7.263-0.992-7.263-5.577c0-2.077,1.797-3.668,4.548-3.668c1.928,0,3.52,0.637,4.66,1.759l-1.235,1.629
			c-0.991-0.992-2.32-1.441-3.63-1.441c-1.272,0-2.097,0.637-2.097,1.554c0,2.339,7.262,0.898,7.262,5.54
			c0,2.077-1.479,3.874-4.829,3.874C110.789,12.957,109.123,12.134,108,10.972z"/>
		<path fill="#FFFFFF" d="M119.378,6.5c0-3.855,2.863-6.457,6.55-6.457c2.508,0,4.08,1.291,4.997,2.788l-1.853,0.974
			c-0.6-1.048-1.816-1.815-3.145-1.815c-2.47,0-4.305,1.872-4.305,4.511c0,2.601,1.835,4.51,4.305,4.51
			c1.328,0,2.545-0.786,3.145-1.815l1.871,0.936c-0.954,1.497-2.508,2.827-5.016,2.827C122.241,12.957,119.378,10.337,119.378,6.5z"
			/>
		<path fill="#FFFFFF" d="M132.684,12.732V0.249h2.189v12.483H132.684z"/>
		<path fill="#FFFFFF" d="M148.311,12.732v-9.64l-3.818,9.64h-0.936l-3.836-9.64v9.64h-2.19V0.249h3.089l3.405,8.57l3.388-8.57
			h3.088v12.483H148.311z"/>
		<path fill="#FFFFFF" d="M153.157,12.732V0.249h8.553v1.927h-6.364v3.22h6.233v1.928h-6.233v3.481h6.364v1.928H153.157z"/>
		<path fill="#FFFFFF" d="M172.657,12.732l-6.513-8.928v8.928h-2.189V0.249h2.245l6.383,8.646V0.249h2.19v12.483H172.657z"/>
		<path fill="#FFFFFF" d="M180.405,12.732V2.176h-3.78V0.249h9.75v1.927h-3.78v10.557H180.405z"/>
		<path fill="#FFFFFF" d="M187.235,6.5c0-3.725,2.639-6.457,6.382-6.457c3.724,0,6.383,2.732,6.383,6.457
			c0,3.724-2.659,6.457-6.383,6.457C189.874,12.957,187.235,10.224,187.235,6.5z M197.753,6.5c0-2.583-1.628-4.511-4.136-4.511
			c-2.526,0-4.137,1.928-4.137,4.511c0,2.563,1.61,4.51,4.137,4.51C196.125,11.01,197.753,9.063,197.753,6.5z"/>
	</g>
</g>
</svg>
